<svg xmlns="http://www.w3.org/2000/svg" xmlns:xlink="http://www.w3.org/1999/xlink" version="1.1" x="0px" y="0px" viewBox="0 0 100 100" enable-background="new 0 0 100 100" xml:space="preserve"><path d="M33.6,5C28,5,23.4,9.5,23.4,15.2v69.6C23.4,90.4,28,95,33.6,95h32.7c5.7,0,10.3-4.6,10.3-10.3V15.2C76.6,9.5,72,5,66.3,5  H33.6z M58.7,13.7c1.2,0,2.1,0.9,2.1,2c0,1.2-0.9,2.1-2.1,2.1H42.3c-1.2,0-2.1-0.9-2.1-2.1c0-1.1,0.9-2,2.1-2H58.7z M50.5,87.5  c-2.3,0-4.1-1.9-4.1-4.2c0-2.3,1.8-4.1,4.1-4.1c2.3,0,4.1,1.8,4.1,4.1C54.6,85.6,52.8,87.5,50.5,87.5L50.5,87.5z M71.1,73.3  c0,1.2-1,2.2-2.2,2.2H32.1c-1.2,0-2.1-1-2.1-2.2V24.3c0-1.2,1-2.2,2.1-2.2h36.9c1.2,0,2.2,1,2.2,2.2V73.3z"></path></svg>